<?xml version="1.0" encoding="utf-8"?>
<!-- Generator: Adobe Illustrator 18.1.0, SVG Export Plug-In . SVG Version: 6.00 Build 0)  -->
<!DOCTYPE svg PUBLIC "-//W3C//DTD SVG 1.1//EN" "http://www.w3.org/Graphics/SVG/1.1/DTD/svg11.dtd">
<svg version="1.1" id="レイヤー_1" xmlns="http://www.w3.org/2000/svg" xmlns:xlink="http://www.w3.org/1999/xlink" x="0px"
	 y="0px" viewBox="0 0 268 60" enable-background="new 0 0 268 60" xml:space="preserve">
<g>
	<path fill="#353535" d="M12.2,16.4h7.9c6.8,0,10.6,2.2,10.6,8.2c0,5.7-3.8,8.6-10.6,8.6h-6.4v13.4h-1.5
		C12.2,46.7,12.2,16.4,12.2,16.4z M19.5,32.1c6.5,0,9.6-2.1,9.6-7.3c0-5.3-3.1-6.9-9.6-6.9h-5.8v14.3H19.5z"/>
	<path fill="#353535" d="M37.1,24.9h1.2l0.2,4.1h0.1c1.5-2.7,3.6-4.7,6.2-4.7c0.7,0,1.4,0.1,2.1,0.4L46.6,26
		c-0.7-0.3-1.1-0.3-1.9-0.3c-2,0-4.4,1.6-6.2,5.8v15.2h-1.4C37.1,46.8,37.1,24.9,37.1,24.9z"/>
	<path fill="#353535" d="M58.9,24.2c5.2,0,9.7,4.3,9.7,11.5s-4.5,11.5-9.7,11.5s-9.7-4.3-9.7-11.5S53.7,24.2,58.9,24.2z M58.9,45.9
		c4.7,0,8.2-4.1,8.2-10.1s-3.6-10.2-8.2-10.2c-4.7,0-8.2,4.3-8.2,10.2S54.2,45.9,58.9,45.9z"/>
	<path fill="#353535" d="M83.2,24.2c3,0,4.9,1.4,6.4,2.8l-1,1c-1.5-1.4-3.2-2.4-5.5-2.4c-4.7,0-8.3,4.3-8.3,10.2s3.3,10.1,8.3,10.1
		c2.4,0,4.6-1.2,6.2-2.7l0.9,1c-1.8,1.6-4.1,3-6.9,3c-5.5,0-9.8-4.3-9.8-11.5C73.5,28.5,78,24.2,83.2,24.2z"/>
	<path fill="#353535" d="M103.6,24.2c5.2,0,9.7,4.3,9.7,11.5s-4.5,11.5-9.7,11.5c-5.2,0-9.7-4.3-9.7-11.5S98.4,24.2,103.6,24.2z
		 M103.6,45.9c4.7,0,8.2-4.1,8.2-10.1s-3.6-10.2-8.2-10.2c-4.7,0-8.2,4.3-8.2,10.2S98.9,45.9,103.6,45.9z"/>
	<path fill="#353535" d="M120.2,24.9h1.2l0.2,3.5h0.1c2.2-2.2,4.6-4,7.6-4c4.5,0,6.6,2.7,6.6,8.3v14h-1.4V32.7
		c0-4.9-1.6-7.2-5.3-7.2c-2.8,0-4.8,1.5-7.6,4.4v16.7h-1.4C120.2,46.5,120.2,24.9,120.2,24.9z"/>
	<path fill="#353535" d="M143.3,17.7c0-1,0.7-1.6,1.6-1.6c0.9,0,1.6,0.5,1.6,1.6c0,1-0.7,1.6-1.6,1.6
		C144.1,19.2,143.3,18.6,143.3,17.7z M144.2,24.9h1.4v21.9h-1.4V24.9z"/>
	<path fill="#353535" d="M152.4,43.1c1.8,1.6,3.8,2.9,7.1,2.9c3.6,0,5.5-2.2,5.5-4.7c0-3-3-4.3-5.5-5.1c-3.4-1.2-7.1-2.4-7.1-6.2
		c0-3,2.3-5.6,6.8-5.6c2.2,0,4.5,1,6.1,2.2l-0.9,1.1c-1.5-1.1-3-2-5.3-2c-3.6,0-5.3,2.1-5.3,4.3c0,2.6,2.7,3.6,5.3,4.7
		c3.5,1.3,7.3,2.3,7.3,6.7c0,3.2-2.6,6.1-7.1,6.1c-3.3,0-6.1-1.4-8-3L152.4,43.1z"/>
	<path fill="#353535" d="M173.1,26.1h-3.5v-1.1l3.5-0.2l0.2-6.4h1.2v6.4h6.5v1.3h-6.5v15c0,2.9,0.6,4.9,3.8,4.9c0.9,0,2-0.3,2.9-0.7
		l0.4,1.2c-1.3,0.4-2.7,0.9-3.4,0.9c-4,0-5.1-2.6-5.1-6.3V26.1z"/>
	<path fill="#353535" d="M193.4,43.7c0.9,0,1.6,0.6,1.6,1.8c0,1.1-0.9,1.7-1.6,1.7c-0.9,0-1.6-0.6-1.6-1.7
		C191.7,44.3,192.6,43.7,193.4,43.7z"/>
	<path fill="#353535" d="M202.6,24.9h1.2l0.2,3.5h0.1c2.3-2.2,4.6-4,7.6-4c4.5,0,6.6,2.7,6.6,8.3v14h-1.4V32.7
		c0-4.9-1.6-7.2-5.3-7.2c-2.8,0-4.8,1.5-7.6,4.4v16.7h-1.4V24.9z"/>
	<path fill="#353535" d="M234.1,24.2c5,0,8.2,3.6,8.2,10.1c0,0.4,0,1-0.1,1.5h-16.1c0,5.8,3.4,10.1,8.6,10.1c2.4,0,4.4-0.9,6.1-2
		l0.6,1.2c-1.6,1-3.5,2.1-6.8,2.1c-5.5,0-10-4.3-10-11.5S229.3,24.2,234.1,24.2z M241,34.6c0-6.1-2.8-9-6.9-9c-3.9,0-7.6,3.5-8,9
		H241z"/>
	<path fill="#353535" d="M249,26.1h-3.5v-1.1l3.5-0.2l0.2-6.4h1.2v6.4h6.5v1.3h-6.5v15c0,2.9,0.6,4.9,3.8,4.9c0.9,0,2-0.3,2.9-0.7
		l0.4,1.2c-1.3,0.4-2.7,0.9-3.4,0.9c-4,0-5.1-2.6-5.1-6.3L249,26.1L249,26.1z"/>
</g>
</svg>
